<svg width="32" height="32" viewBox="0 0 24 24" fill="none" xmlns="http://www.w3.org/2000/svg">
  <mask id="mask0" style="mask-type:luminance" maskUnits="userSpaceOnUse" x="0" y="0" width="24" height="24">
    <path d="M24 0H0V24H24V0Z" fill="white"/>
  </mask>
  <g mask="url(#mask0)">
    <path d="M12.7687 1.73211C12.7913 1.73544 12.8139 1.73877 12.8372 1.74222C12.9526 1.75976 13.0666 1.78081 13.1807 1.80522C13.2247 1.81462 13.2688 1.82373 13.313 1.83264C14.9474 2.16305 16.5035 2.89683 17.7865 3.96399C17.8194 3.99104 17.8525 4.0176 17.8857 4.04406C18.1553 4.259 18.3987 4.50427 18.6426 4.7476C18.6615 4.76647 18.6804 4.78533 18.7 4.80478C18.8067 4.91199 18.9091 5.0214 19.007 5.1368C19.0218 5.154 19.0218 5.154 19.0368 5.1716C19.5206 5.7333 19.9422 6.3391 20.2975 6.9901C20.3088 7.0107 20.3202 7.0314 20.3318 7.0527C20.5909 7.5301 20.8108 8.0272 20.986 8.5416C20.9933 8.5631 21.0008 8.5848 21.0085 8.6071C21.1416 8.9965 21.2445 9.3889 21.3301 9.7913C21.3345 9.8117 21.3389 9.832 21.3434 9.853C21.4182 10.2023 21.4617 10.5572 21.5022 10.912C21.5041 10.9273 21.506 10.9427 21.508 10.9586C21.526 11.1169 21.5275 11.2745 21.5281 11.4338C21.5282 11.4635 21.5283 11.493 21.5286 11.5226C21.5289 11.6171 21.529 11.7117 21.5291 11.8062C21.5291 11.8223 21.5291 11.8382 21.5291 11.8548C21.5296 12.4242 21.5194 12.9843 21.4103 13.5452C21.397 13.6147 21.3852 13.6843 21.3743 13.7544C21.3491 13.9087 21.3145 14.0608 21.2796 14.2133C21.2683 14.2627 21.2572 14.3122 21.2461 14.3617C21.2048 14.5446 21.156 14.7214 21.0935 14.8985C21.0789 14.9446 21.0645 14.9908 21.0505 15.0372C21.0433 15.0604 21.0362 15.0835 21.029 15.1075C21.0144 15.1555 21.0001 15.2036 20.986 15.2517C20.95 15.3728 20.9119 15.4888 20.858 15.6031C20.8357 15.6519 20.8159 15.7011 20.7964 15.7511C20.5225 16.4415 20.16 17.077 19.7598 17.6998C19.6842 17.6674 19.6355 17.6238 19.5776 17.5657C19.5585 17.5465 19.5394 17.5275 19.5197 17.5077C19.4987 17.4866 19.4777 17.4654 19.4566 17.4442C19.4344 17.4218 19.4122 17.3995 19.3899 17.3772C19.3295 17.3168 19.2691 17.2561 19.2089 17.1955C19.1459 17.132 19.0828 17.0688 19.0197 17.0056C18.9002 16.8858 18.7809 16.7659 18.6616 16.6458C18.5257 16.5093 18.3898 16.3728 18.2538 16.2365C17.9741 15.9558 17.6946 15.675 17.4151 15.3941C17.443 15.323 17.4729 15.255 17.5081 15.1872C17.6432 14.9237 17.7627 14.6585 17.8668 14.3813C17.8721 14.3674 17.8773 14.3534 17.8827 14.3391C17.8934 14.3111 17.9038 14.283 17.9142 14.255C17.9265 14.2219 17.9391 14.189 17.9518 14.1561C18.0125 13.9957 18.0552 13.8329 18.0954 13.6661C18.1018 13.6399 18.1083 13.6136 18.1148 13.5865C18.1273 13.5358 18.1396 13.485 18.1518 13.4342C18.1642 13.384 18.1774 13.3345 18.1912 13.2847C18.2223 13.1604 18.2344 13.0321 18.2498 12.9051C18.2552 12.8599 18.2609 12.8148 18.2667 12.7697C18.3884 11.7918 18.3501 10.6977 17.9905 9.7692C17.9677 9.7091 17.9481 9.648 17.9283 9.5869C17.8723 9.4143 17.8126 9.2456 17.7378 9.0803C17.7305 9.0643 17.7233 9.0483 17.7159 9.0319C17.3691 8.2688 16.8993 7.5536 16.2965 6.9684C16.2438 6.9161 16.1915 6.8634 16.1396 6.8099C16.0128 6.6798 15.8795 6.5641 15.7373 6.4513C15.7154 6.4334 15.6936 6.4156 15.6712 6.3971C15.0603 5.8992 14.3633 5.5317 13.6245 5.2662C13.5841 5.2516 13.5437 5.2368 13.5035 5.2218C13.3817 5.1764 13.2602 5.1367 13.1344 5.1045C13.117 5.1 13.0995 5.0955 13.0816 5.0909C12.8122 5.0224 12.5426 4.96633 12.2672 4.92807C12.2487 4.9255 12.2303 4.92293 12.2113 4.91928C11.8897 4.87707 11.5692 4.87207 11.2454 4.87186C11.2229 4.87183 11.2005 4.87281 11.1773 4.87279C10.8428 4.873 10.5173 4.88329 10.1873 4.94289C10.1692 4.946 10.1511 4.94912 10.1324 4.95233C8.82761 5.1799 7.57906 5.7545 6.60444 6.6613C6.55952 6.7029 6.51383 6.7429 6.46722 6.7827C6.28903 6.9379 6.12185 7.1096 5.97112 7.2918C5.96146 7.3032 5.95179 7.3148 5.94184 7.3267C5.55482 7.7898 5.21248 8.295 4.9583 8.8442C4.93763 8.8884 4.91603 8.932 4.89438 8.9758C4.77959 9.2134 4.69278 9.4593 4.60919 9.7093C4.60371 9.7255 4.59823 9.7417 4.59259 9.7585C4.50019 10.034 4.40749 10.319 4.38374 10.6101C4.37878 10.6583 4.36935 10.7042 4.35912 10.7516C4.32731 10.9042 4.31043 11.059 4.29325 11.2137C4.29143 11.2296 4.28962 11.2457 4.28774 11.2623C4.27453 11.3857 4.26778 11.5078 4.26661 11.6318C4.2664 11.6506 4.26618 11.6693 4.26597 11.6886C4.25144 13.3238 4.70918 14.9175 5.7345 16.2129C5.75178 16.2348 5.76904 16.2568 5.78684 16.2793C5.87969 16.3947 5.97663 16.5058 6.07632 16.6154C6.11646 16.6597 6.15549 16.7048 6.1943 16.7503C6.34325 16.9214 6.50707 17.0804 6.68098 17.2258C6.69859 17.2405 6.71621 17.2552 6.73435 17.2704C6.79504 17.3207 6.85621 17.3703 6.91761 17.4197C6.93814 17.4363 6.95865 17.453 6.97979 17.4701C7.53535 17.9103 8.17968 18.2817 8.85345 18.5034C8.89986 18.5198 8.94456 18.5391 8.98982 18.5585C9.14093 18.6198 9.29848 18.6588 9.45596 18.6999C9.50906 18.7138 9.56207 18.728 9.61508 18.7423C9.84706 18.8038 10.0789 18.8507 10.3164 18.885C10.3307 18.8871 10.3451 18.8893 10.3599 18.8914C10.6823 18.9372 11.0003 18.9384 11.3274 18.9497C11.3274 16.6315 11.3274 14.3132 11.3274 11.9247C11.4968 12.0701 11.4968 12.0701 11.5613 12.1347C11.576 12.1495 11.5908 12.1642 11.606 12.1794C11.6296 12.2032 11.6296 12.2032 11.6537 12.2273C11.6709 12.2445 11.6881 12.2617 11.7058 12.2793C11.7634 12.337 11.8208 12.3946 11.8782 12.4523C11.9199 12.494 11.9616 12.5357 12.0033 12.5774C12.0938 12.6681 12.1843 12.7587 12.2749 12.8494C12.4095 12.9844 12.5442 13.1193 12.6788 13.254C12.9193 13.4948 13.1597 13.7357 13.4001 13.9766C13.6105 14.1873 13.8207 14.398 14.0311 14.6087C14.052 14.6296 14.052 14.6296 14.0733 14.6509C14.13 14.7077 14.1865 14.7644 14.2431 14.8211C14.7742 15.3529 15.3051 15.8849 15.836 16.4169C16.308 16.8899 16.7801 17.3628 17.2523 17.8356C17.7826 18.3667 18.3127 18.8978 18.8429 19.429C18.8993 19.4855 18.9558 19.5421 19.0123 19.5986C19.0262 19.6126 19.0401 19.6265 19.0545 19.6409C19.2647 19.8516 19.4751 20.0623 19.6855 20.2729C19.9244 20.5122 20.1633 20.7516 20.4022 20.991C20.5361 21.1251 20.6699 21.2592 20.8038 21.3933C20.8931 21.4827 20.9824 21.5721 21.0715 21.6615C21.1224 21.7126 21.1734 21.7636 21.2244 21.8146C21.2792 21.8694 21.3338 21.9242 21.3885 21.9791C21.4045 21.9952 21.4206 22.0113 21.4372 22.0278C21.4516 22.0423 21.466 22.0568 21.4808 22.0717C21.4996 22.0905 21.4996 22.0905 21.5188 22.1098C21.5452 22.1389 21.5452 22.1389 21.5452 22.1604C20.8452 22.2366 20.1448 22.2868 19.4411 22.3153C19.4153 22.3164 19.3895 22.3175 19.363 22.3186C18.1135 22.3692 17.0034 22.3716 16.0424 21.4867C15.8538 21.3092 15.6806 21.1187 15.5113 20.9227C15.4922 20.9006 15.4922 20.9006 15.4725 20.8779C15.1539 20.5096 14.8581 20.1273 14.5854 19.7236C14.557 19.6798 14.5569 19.6798 14.5111 19.6607C14.5111 20.315 14.5111 20.9692 14.5111 21.6433C14.2707 21.7235 14.0364 21.7998 13.7917 21.8614C13.7628 21.8688 13.7338 21.8763 13.7047 21.8837C13.2808 21.9911 12.8584 22.0645 12.4244 22.1174C12.3983 22.1209 12.3722 22.1244 12.3451 22.128C11.3397 22.2534 10.2709 22.1854 9.28089 21.9793C9.2226 21.9672 9.16422 21.9556 9.10579 21.9443C8.89947 21.9035 8.6988 21.8515 8.49805 21.7889C8.43848 21.7705 8.37869 21.7531 8.31887 21.7356C7.24674 21.4196 6.20091 20.9141 5.30427 20.2426C5.27551 20.2213 5.24674 20.2001 5.21798 20.1788C4.98312 20.0045 4.75716 19.8235 4.54197 19.625C4.49423 19.5813 4.44583 19.5387 4.39677 19.4964C4.32278 19.4321 4.25423 19.3636 4.1856 19.2936C4.14449 19.2532 4.102 19.2158 4.05796 19.1786C3.97523 19.1071 3.90374 19.0287 3.83168 18.9465C3.79197 18.9019 3.75191 18.8581 3.71085 18.8147C3.57203 18.6681 3.44203 18.5181 3.31936 18.3576C3.28079 18.3072 3.24135 18.2578 3.20071 18.2091C2.69132 17.5949 2.26161 16.8617 1.94853 16.1268C1.9395 16.1056 1.93046 16.0845 1.92116 16.0627C1.89069 15.9912 1.86043 15.9196 1.83021 15.848C1.82004 15.8239 1.80986 15.7999 1.79937 15.7751C1.61841 15.3465 1.47986 14.9191 1.36772 14.4675C1.36228 14.4459 1.35685 14.4244 1.35125 14.4022C1.14974 13.6028 1.04011 12.8031 1.04102 11.9786C1.04103 11.9585 1.04103 11.9383 1.04104 11.9177C1.04171 11.4119 1.05978 10.9075 1.14327 10.4078C1.15353 10.3461 1.1632 10.2844 1.17286 10.2228C1.25688 9.6934 1.38584 9.1842 1.55595 8.6762C1.56155 8.6595 1.56715 8.6427 1.57292 8.6254C1.66563 8.3483 1.76643 8.0765 1.88399 7.8089C1.89223 7.7898 1.90048 7.7706 1.90898 7.751C2.04148 7.4444 2.19216 7.1508 2.35723 6.8608C2.36853 6.8408 2.37982 6.821 2.39146 6.8005C2.55341 6.5166 2.72681 6.2432 2.91653 5.9772C2.93522 5.951 2.93522 5.951 2.95429 5.9242C3.09594 5.7266 3.24116 5.5338 3.40062 5.3501C3.4507 5.2919 3.49826 5.2322 3.54573 5.1718C3.64082 5.0544 3.74637 4.94895 3.85434 4.84353C3.93099 4.7684 4.00231 4.69146 4.07125 4.60927C4.1056 4.56969 4.14267 4.53586 4.183 4.50248C4.243 4.45146 4.299 4.39884 4.35374 4.34221C4.43779 4.2567 4.52869 4.18216 4.62204 4.10711C4.67442 4.0643 4.72463 4.02015 4.77456 3.97453C5.25875 3.54006 5.83307 3.18554 6.40135 2.87419C6.422 2.86286 6.44265 7.85152 6.46392 2.83985C6.88798 2.60892 7.33041 2.3909 7.79369 2.25062C7.85263 2.23145 7.90867 2.20999 7.96595 2.18648C8.54747 1.9505 9.1822 1.82801 9.80011 1.73211C9.82253 1.72859 9.82253 1.72859 9.84541 1.725C10.7974 1.57797 11.8172 1.58761 12.7687 1.73211Z" fill="#FF532E"/>
  </g>
</svg>
